<?xml version="1.0" standalone="no"?>
<!DOCTYPE svg PUBLIC "-//W3C//DTD SVG 20010904//EN"
 "http://www.w3.org/TR/2001/REC-SVG-20010904/DTD/svg10.dtd">
<svg version="1.0" xmlns="http://www.w3.org/2000/svg"
 width="366.000000pt" height="460.000000pt" viewBox="0 0 366.000000 460.000000"
 preserveAspectRatio="xMidYMid meet">

<g transform="translate(0.000000,460.000000) scale(0.100000,-0.100000)"
fill="#000000" stroke="none">
<path d="M1581 4510 c-13 -29 -27 -78 -31 -109 -5 -31 -14 -72 -20 -92 -9 -31
-14 -36 -36 -33 -14 1 -28 5 -31 8 -4 3 -13 0 -21 -7 -13 -9 -14 -9 -8 1 4 6
3 12 -3 12 -5 0 -13 -4 -16 -10 -3 -5 -15 -10 -26 -10 -14 0 -18 4 -13 13 6 9
5 9 -7 0 -8 -6 -23 -13 -35 -14 -24 -5 -134 60 -134 78 0 7 -6 13 -14 13 -8 0
-21 3 -29 6 -15 5 -14 -11 8 -82 8 -25 -17 -54 -46 -54 -45 0 -193 -96 -280
-182 -53 -52 -68 -62 -94 -59 -37 3 -63 -19 -124 -106 -24 -35 -48 -63 -53
-63 -5 0 -8 -5 -6 -11 3 -10 -92 -113 -98 -106 -2 2 8 21 22 43 l25 39 -35
-39 c-20 -22 -36 -45 -36 -53 0 -7 -4 -13 -10 -13 -5 0 -10 -10 -10 -23 0 -12
-17 -56 -38 -98 -20 -41 -38 -80 -39 -85 -1 -5 -5 -17 -9 -27 -6 -17 -5 -18
14 -6 11 7 19 16 17 19 -2 4 2 7 10 7 10 0 11 -5 4 -19 -5 -10 -13 -18 -18
-18 -12 0 -33 -52 -23 -59 10 -7 8 -83 -2 -99 -3 -6 -7 -46 -7 -89 -1 -64 -6
-86 -26 -122 -14 -24 -28 -60 -30 -80 -3 -20 -11 -41 -18 -47 -11 -8 -10 -12
6 -22 10 -7 19 -23 19 -36 0 -13 7 -29 16 -37 12 -10 14 -23 10 -53 -11 -74
-16 -242 -7 -221 9 22 11 18 24 -55 9 -48 61 -179 69 -174 4 3 8 -5 7 -18 0
-13 0 -76 0 -140 1 -64 -2 -125 -6 -134 -4 -11 -3 -15 4 -11 7 5 14 -11 18
-41 7 -54 25 -92 25 -55 0 16 4 21 15 17 8 -4 15 -12 15 -20 0 -8 4 -14 9 -14
16 0 24 131 16 280 -8 171 -8 215 4 255 9 30 9 30 12 -10 1 -22 1 -52 0 -68
-1 -15 7 -39 18 -53 15 -19 21 -22 21 -11 0 9 12 33 26 54 20 29 24 46 20 73
-4 29 -3 32 7 19 11 -15 78 -35 103 -30 19 3 47 -80 49 -147 1 -34 5 -65 9
-69 3 -3 6 -15 6 -25 0 -15 7 -18 34 -16 19 1 41 -4 50 -11 13 -11 17 -10 23
5 4 10 2 19 -4 21 -8 3 -8 14 -3 34 11 36 5 37 -14 2 -8 -16 -15 -22 -16 -15
0 6 -9 12 -20 12 -10 0 -24 9 -30 19 -13 25 -13 115 0 161 5 19 11 59 14 88 3
30 7 57 10 60 4 3 17 -5 30 -17 14 -13 29 -20 34 -17 5 3 17 -3 27 -14 18 -20
35 -18 35 3 0 8 -3 8 -9 -1 -7 -11 -9 -10 -14 3 -4 9 -3 14 2 10 5 -3 11 0 13
7 2 6 14 -3 27 -20 27 -39 18 -62 -34 -87 -20 -9 -34 -19 -32 -22 3 -3 29 7
58 21 l52 27 56 -20 56 -20 -35 30 -35 30 35 -3 c19 -1 41 1 47 5 7 5 21 4 30
-1 10 -5 42 -10 71 -11 51 -2 108 -22 96 -34 -6 -6 43 -12 181 -23 95 -7 152
-36 196 -98 22 -30 28 -47 24 -67 -7 -33 16 -46 33 -18 7 11 23 19 40 19 26
-1 26 -1 6 -13 -57 -33 -80 -63 -93 -120 -22 -100 -1 -77 28 31 14 51 45 73
110 80 49 4 120 -19 126 -42 52 -194 111 -280 145 -216 17 31 3 82 -31 113
-27 25 -30 33 -25 63 7 33 6 34 -23 34 -16 0 -32 4 -35 9 -7 11 49 25 64 16 6
-4 8 5 4 22 -5 25 -1 30 36 45 32 13 39 14 30 3 -12 -15 -6 -35 11 -35 6 0 8
4 5 9 -3 5 9 9 27 8 23 -1 40 7 59 26 29 29 58 36 58 13 0 -34 35 -58 92 -63
51 -4 57 -2 76 22 21 26 21 26 46 8 14 -10 26 -24 26 -30 0 -12 13 -17 33 -14
11 2 8 -9 -8 -25 -50 -50 -230 -61 -315 -19 -50 25 -66 26 -67 7 -1 -10 4 -19
10 -20 111 -17 153 -23 210 -28 37 -4 67 -11 67 -15 0 -11 51 -12 65 -1 6 4
15 16 21 27 6 11 21 21 33 23 11 2 26 12 31 22 6 11 17 17 25 14 9 -4 16 3 20
18 8 30 -23 85 -64 116 -32 23 -127 52 -173 52 -15 0 -28 5 -28 11 0 16 -212
3 -280 -17 -58 -17 -112 -60 -130 -104 -10 -24 -15 -28 -26 -19 -8 6 -55 14
-104 17 -78 4 -88 7 -78 20 7 8 21 18 33 22 18 8 18 9 -5 9 -15 1 -30 -7 -38
-19 -20 -32 -28 -24 -27 28 l0 47 130 0 130 0 -3 -30 -4 -30 29 27 c15 14 46
33 68 42 47 18 183 36 275 36 55 0 67 3 78 20 13 21 41 23 54 5 4 -5 10 -2 14
8 9 24 30 21 48 -5 9 -12 16 -16 16 -9 0 8 6 11 16 7 17 -6 74 13 74 25 0 3
11 4 25 1 25 -4 25 -5 9 -31 l-17 -26 21 19 c20 17 22 18 22 2 0 -9 4 -15 9
-12 5 4 11 0 14 -6 10 -29 31 12 29 59 -1 35 1 42 7 28 12 -29 36 -47 57 -43
24 4 57 -59 73 -140 14 -70 10 -82 -25 -82 -13 0 -24 -6 -24 -12 0 -7 -8 1
-18 17 -21 33 -50 60 -57 53 -3 -3 0 -27 6 -54 6 -27 12 -60 13 -74 2 -14 4
-31 4 -38 2 -15 62 40 62 55 0 5 13 8 28 5 l28 -4 -3 -141 c-2 -78 -9 -159
-14 -182 -26 -98 -40 -196 -41 -272 0 -63 -4 -83 -15 -87 -9 -4 -13 -13 -9
-22 3 -9 3 -20 0 -26 -3 -5 -7 -30 -9 -56 -2 -49 -46 -207 -71 -255 -8 -16
-14 -34 -14 -42 0 -22 -26 -65 -35 -57 -5 4 -5 1 -1 -6 4 -7 -10 -49 -34 -97
-31 -63 -47 -85 -61 -85 -19 0 -26 -14 -11 -23 4 -2 1 -2 -7 0 -8 2 -11 -2 -8
-11 3 -8 -1 -13 -11 -12 -9 0 -17 -6 -17 -14 0 -8 -15 -22 -32 -30 -18 -8 -31
-20 -29 -27 3 -6 -5 -13 -16 -16 -11 -3 -17 -10 -14 -16 4 -6 -4 -8 -19 -5
-30 5 -64 -9 -46 -20 6 -4 11 -2 11 4 0 6 5 8 10 5 17 -10 11 -32 -7 -31 -10
1 -20 -3 -23 -9 -2 -5 -27 -29 -55 -53 -37 -32 -51 -39 -53 -28 -6 28 -71 12
-102 -24 -9 -11 -20 -17 -24 -13 -3 3 -6 -1 -6 -10 0 -10 -8 -17 -20 -17 -11
0 -20 -7 -20 -16 0 -8 -4 -13 -9 -10 -4 3 -7 18 -5 33 2 16 1 20 -2 10 -3 -9
-9 -15 -14 -12 -4 3 -6 -4 -3 -15 4 -16 0 -20 -17 -20 -16 0 -20 -4 -16 -15 5
-14 2 -14 -24 0 -20 10 -31 12 -36 4 -3 -6 -15 -9 -25 -6 -10 3 -22 1 -25 -4
-8 -14 -34 -11 -34 4 0 7 -9 13 -19 13 -15 0 -17 -4 -10 -17 5 -10 9 -19 9
-22 0 -7 -35 -1 -57 11 -12 7 -29 12 -38 12 -10 0 -39 11 -66 25 -40 19 -49
21 -49 9 0 -8 -4 -13 -9 -9 -5 3 -11 -3 -14 -12 -3 -13 -6 -10 -12 12 -5 16
-14 36 -22 43 -11 11 -13 10 -13 -7 0 -28 -18 -36 -22 -9 -2 16 -9 22 -23 21
-11 -1 -24 5 -28 13 -10 17 -34 18 -40 2 -4 -9 -8 -9 -14 -3 -4 6 -14 10 -20
11 -34 3 -36 4 -24 18 10 12 8 14 -11 10 -20 -5 -21 -4 -5 6 9 6 17 15 17 21
0 5 -9 1 -21 -10 -23 -21 -51 -18 -42 5 4 10 0 12 -13 7 -13 -5 -16 -3 -12 9
4 8 -2 21 -12 28 -11 8 -17 17 -14 22 3 4 -2 5 -10 2 -9 -3 -16 -1 -16 6 0 6
-4 9 -9 6 -5 -3 -12 1 -15 10 -5 12 -14 15 -36 10 -25 -5 -30 -2 -30 15 0 11
-5 17 -10 14 -6 -3 -10 -2 -10 2 0 5 -13 17 -30 26 -16 10 -33 29 -36 43 -4
16 -12 23 -20 20 -8 -3 -13 -2 -11 3 1 4 -12 21 -28 38 -17 17 -38 41 -47 54
l-16 24 5 -27 c3 -16 10 -28 15 -28 5 0 7 -4 4 -9 -4 -5 12 -26 34 -47 42 -40
51 -64 24 -64 -13 0 -13 -2 -1 -21 8 -11 13 -29 10 -40 -3 -10 0 -19 6 -19 6
0 11 -8 11 -19 0 -20 23 -70 37 -80 5 -3 22 -24 39 -46 16 -22 42 -51 59 -65
16 -14 38 -36 50 -49 39 -46 68 -69 81 -64 7 2 19 -8 28 -25 18 -36 41 -47 43
-22 1 11 -6 20 -15 22 -11 2 -13 6 -6 11 6 3 24 -6 40 -20 25 -23 26 -28 12
-31 -11 -2 -18 -12 -18 -25 1 -19 2 -20 11 -5 5 9 16 15 24 12 8 -4 18 1 21
10 5 13 9 14 20 5 15 -12 19 -31 6 -26 -4 1 -7 -2 -7 -8 0 -5 3 -9 6 -8 3 1 5
-9 3 -23 -2 -18 2 -24 11 -20 10 3 12 0 8 -11 -5 -12 -3 -14 7 -8 10 6 12 4 7
-8 -4 -11 3 -18 24 -26 16 -6 36 -8 43 -5 8 3 17 1 21 -5 3 -6 1 -11 -4 -11
-6 0 -11 -4 -11 -10 0 -5 9 -10 20 -10 11 0 20 5 20 10 0 6 5 10 11 10 5 0 7
-4 4 -10 -7 -12 39 -24 66 -17 27 7 193 -10 217 -22 107 -56 127 -62 189 -60
35 1 63 6 63 11 0 4 5 8 10 8 15 0 72 41 90 65 8 11 37 45 66 75 28 31 61 74
73 95 13 22 47 60 76 85 50 42 60 58 98 151 14 33 21 127 21 286 1 39 4 69 9
66 4 -2 6 -1 5 4 -4 16 23 81 42 98 17 15 22 16 37 4 16 -13 16 -13 1 10 -9
13 -14 30 -11 38 5 11 9 11 25 -4 18 -16 19 -16 12 3 -4 10 -11 24 -16 31 -24
31 22 44 60 17 20 -14 26 -12 23 9 -1 4 10 5 23 1 13 -3 27 -1 30 5 4 6 3 11
-2 11 -6 0 -13 7 -16 16 -5 12 -2 15 11 9 10 -3 36 -10 58 -14 22 -5 47 -11
55 -15 13 -5 15 5 12 68 l-4 74 62 4 c54 3 61 1 56 -14 -2 -10 -1 -18 3 -18
13 0 31 39 25 55 -4 10 -2 15 6 13 6 -2 17 6 23 16 7 11 20 29 30 40 21 24 22
36 2 36 -18 0 -20 21 -4 37 8 8 8 17 -1 33 -8 15 -8 20 -1 16 6 -4 12 -4 12 1
1 4 3 17 5 28 6 40 13 67 22 79 5 6 12 23 16 38 8 36 53 88 76 88 22 0 30 36
23 107 -6 52 -6 53 22 53 26 0 27 2 21 35 -4 19 -18 46 -31 60 -14 13 -25 33
-25 44 0 17 -8 20 -52 23 -52 3 -53 4 -51 32 1 17 -3 37 -11 45 -26 31 -30 45
-12 38 11 -4 24 2 38 18 12 14 26 25 32 25 13 1 57 71 76 120 7 19 17 39 21
44 4 5 4 18 -2 28 -7 14 -3 41 17 104 25 80 26 90 14 146 -8 36 -29 84 -53
121 -22 34 -40 69 -40 77 0 8 -4 20 -9 27 -6 7 -6 19 1 31 5 10 7 28 4 40 -4
17 1 24 21 32 15 5 25 14 21 20 -3 5 -12 7 -19 4 -19 -7 -29 25 -14 43 10 13
13 12 19 -4 4 -10 5 3 2 30 -3 26 -3 47 1 47 9 0 59 -33 69 -45 4 -5 5 4 1 20
-4 17 -11 32 -15 35 -4 3 -4 21 1 40 4 19 8 29 9 22 1 -10 4 -10 15 0 10 9 11
17 4 26 -6 7 -12 26 -14 44 -4 34 -10 43 -27 43 -5 0 -12 6 -15 14 -3 9 0 11
9 5 12 -6 12 -5 0 9 -8 10 -11 20 -8 23 3 3 12 -3 19 -15 17 -27 32 -27 18 0
-15 26 -9 32 24 23 30 -7 76 -61 76 -90 0 -16 2 -16 10 -4 7 12 11 10 19 -10
8 -20 10 -21 10 -6 2 40 -82 140 -146 174 -13 7 -28 23 -34 35 -5 12 -16 33
-24 47 l-15 25 0 -24 c0 -24 0 -24 -15 -5 -13 17 -14 17 -15 2 0 -10 -4 -18
-10 -18 -9 0 -13 14 -7 25 1 2 -8 11 -19 20 -20 13 -40 58 -35 79 1 5 -4 16
-12 25 -21 24 -30 42 -20 40 20 -3 21 3 7 37 -8 19 -12 44 -9 55 12 38 8 81
-15 128 -16 34 -27 47 -39 45 -9 -3 -38 12 -65 33 -39 29 -55 51 -73 97 -13
32 -41 79 -62 105 -21 25 -48 67 -60 94 -13 26 -26 47 -31 47 -4 0 -10 7 -13
14 -4 10 -1 13 7 10 8 -3 17 -1 21 5 3 6 -2 11 -13 11 -10 0 -27 9 -36 19 -24
26 -103 59 -157 65 -33 4 -36 3 -14 -2 17 -5 29 -13 28 -19 -1 -5 8 -8 22 -6
15 3 31 -3 44 -16 11 -11 27 -18 35 -15 11 4 13 0 9 -15 -8 -31 -47 -23 -91
17 -7 6 -24 12 -38 12 -13 0 -24 4 -24 9 0 5 -23 9 -51 7 -49 -2 -86 16 -57
27 8 3 6 6 -5 6 -10 1 -33 12 -50 25 -87 64 -223 60 -372 -13 -45 -22 -59 -16
-69 27 -4 15 -21 39 -38 53 l-32 27 31 6 c51 11 50 34 -1 26 -23 -3 -48 -10
-55 -14 -8 -5 -17 -3 -23 5 -7 11 -11 11 -14 2 -3 -7 -22 -15 -42 -19 -81 -15
-110 -39 -153 -128 l-39 -83 -51 -11 c-59 -14 -74 -7 -82 36 -6 32 3 51 55
117 l40 50 -46 -47 c-26 -27 -49 -48 -50 -48 -8 0 12 67 28 98 9 18 16 38 14
44 -2 6 -14 -13 -27 -42z m276 -57 c-14 -15 -30 -23 -34 -19 -4 4 3 16 16 27
13 10 20 19 17 19 -4 0 -4 5 0 11 4 8 9 8 17 0 8 -8 4 -19 -16 -38z m151 22
c4 -4 -3 -6 -15 -3 -14 4 -24 0 -28 -10 -4 -11 -9 -12 -16 -5 -6 6 -8 16 -5
21 7 11 53 9 64 -3z m-18 -66 c-5 -18 -12 -34 -15 -37 -7 -7 -6 43 1 62 11 29
23 6 14 -25z m51 24 c12 -16 12 -17 -2 -6 -9 7 -19 10 -22 6 -4 -3 -7 -1 -7 5
0 17 16 15 31 -5z m389 7 c46 -13 56 -21 64 -47 7 -21 6 -22 -81 -18 -48 2
-128 4 -178 5 l-90 1 40 21 c80 42 177 57 245 38z m-502 -18 c2 -7 -4 -15 -13
-18 -20 -8 -27 -1 -19 20 7 18 25 17 32 -2z m102 -59 c0 -7 -4 -13 -10 -13 -5
0 -10 -9 -10 -20 0 -11 -4 -20 -9 -20 -16 0 -20 28 -8 65 10 34 12 35 24 19 7
-10 13 -24 13 -31z m23 12 c-7 -21 -13 -19 -13 6 0 11 4 18 10 14 5 -3 7 -12
3 -20z m-103 -26 c0 -16 -4 -29 -10 -29 -5 0 -10 7 -10 15 0 9 -9 15 -22 15
l-21 0 23 20 c28 24 40 18 40 -21z m-180 1 c0 -5 -7 -10 -16 -10 -8 0 -12 5
-9 10 3 6 10 10 16 10 5 0 9 -4 9 -10z m757 -3 c0 -9 -8 -12 -25 -9 -17 3 -23
1 -18 -7 4 -6 3 -11 -3 -11 -5 0 -12 4 -15 9 -3 5 -24 6 -46 4 -23 -3 -40 -1
-40 5 0 14 11 17 84 20 48 2 63 0 63 -11z m-227 -8 c-14 -6 -44 -9 -66 -6 -32
3 -46 0 -58 -14 -18 -22 -91 -27 -83 -6 2 7 17 11 36 9 21 -1 31 2 31 12 0 10
20 14 83 14 65 1 77 -1 57 -9z m340 -4 c52 -2 97 -14 110 -31 7 -7 17 -11 24
-7 6 3 2 -3 -8 -15 -18 -21 -20 -21 -40 -5 -20 17 -20 17 -7 1 12 -16 11 -18
-5 -17 -31 1 -106 42 -123 69 -13 20 -14 23 -1 15 8 -5 31 -10 50 -10z m-1455
-5 c3 -5 3 -15 -1 -21 -6 -11 -23 6 -24 24 0 10 18 9 25 -3z m1670 -10 c3 -5
-1 -10 -9 -10 -9 0 -16 5 -16 10 0 6 4 10 9 10 6 0 13 -4 16 -10z m-1580 -50
c20 -23 20 -23 0 -17 -11 3 -35 9 -53 12 -24 5 -32 11 -28 22 3 8 6 19 6 24 0
14 51 -15 75 -41z m1308 36 c26 -20 21 -34 -10 -28 -33 6 -55 21 -47 33 8 13
36 10 57 -5z m-1023 -11 c0 -8 -4 -15 -10 -15 -5 0 -10 7 -10 15 0 8 5 15 10
15 6 0 10 -7 10 -15z m767 9 c-3 -3 -12 -4 -19 -1 -8 3 -5 6 6 6 11 1 17 -2
13 -5z m546 -40 c-1 -5 5 -20 14 -33 14 -22 14 -24 -2 -18 -9 4 -20 7 -25 7
-5 0 -16 8 -26 17 -9 9 -26 17 -38 18 -35 0 -33 19 4 32 27 9 39 9 55 -2 11
-7 19 -16 18 -21z m-419 -13 c16 -17 16 -19 0 -25 -20 -8 -23 -5 -29 23 -5 26
6 27 29 2z m41 8 c4 -6 5 -12 2 -15 -7 -7 -37 7 -37 17 0 13 27 11 35 -2z
m-90 -10 c11 -17 -1 -21 -15 -4 -8 9 -8 15 -2 15 6 0 14 -5 17 -11z m280 -9
c3 -5 -3 -10 -14 -10 -12 0 -21 5 -21 10 0 6 6 10 14 10 8 0 18 -4 21 -10z
m-1375 -21 c0 -6 -4 -7 -10 -4 -5 3 -10 11 -10 16 0 6 5 7 10 4 6 -3 10 -11
10 -16z m1267 -16 c-8 -7 -37 9 -31 19 3 5 12 4 20 -3 8 -6 13 -14 11 -16z
m-1103 -3 c-11 -5 -33 -5 -49 -2 -24 4 -26 6 -11 12 10 3 32 4 49 2 27 -4 29
-6 11 -12z m1326 -21 c0 -4 -7 -6 -15 -3 -8 4 -15 10 -15 15 0 4 7 6 15 3 8
-4 15 -10 15 -15z m-1466 2 c5 -8 -23 -17 -89 -27 -16 -3 -54 -12 -83 -21 -29
-9 -55 -13 -58 -10 -3 3 20 19 52 36 45 23 73 30 116 31 31 0 59 -4 62 -9z
m1347 -9 c-7 -2 -18 1 -23 6 -8 8 -4 9 13 5 13 -4 18 -8 10 -11z m253 -8 c9
-8 16 -23 16 -32 0 -13 -5 -11 -20 8 -14 18 -18 19 -14 6 7 -18 6 -18 -19 -1
-30 19 -35 27 -12 19 8 -4 15 -1 15 5 0 16 16 14 34 -5z m-1852 -10 c-12 -8
-20 -19 -17 -23 6 -10 -27 -40 -85 -77 -25 -16 -46 -32 -48 -36 -2 -5 -12 -8
-22 -8 -11 0 -23 -6 -27 -13 -12 -21 -44 -35 -64 -30 -18 5 -18 6 1 32 36 52
83 90 159 130 42 22 87 41 101 41 l24 0 -22 -16z m1768 -4 c0 -5 -4 -10 -10
-10 -5 0 -10 5 -10 10 0 6 5 10 10 10 6 0 10 -4 10 -10z m40 -82 c0 -13 -23
-5 -28 10 -2 7 2 10 12 6 9 -3 16 -11 16 -16z m44 -14 c15 -15 21 -34 11 -34
-8 0 -45 34 -45 42 0 13 18 9 34 -8z m90 -43 c-6 -6 -24 19 -24 34 1 6 7 1 15
-9 8 -11 12 -22 9 -25z m-2059 9 c-3 -5 -12 -10 -18 -10 -7 0 -6 4 3 10 19 12
23 12 15 0z m2037 -47 c21 -19 24 -53 4 -53 -18 0 -58 49 -50 61 8 14 25 11
46 -8z m-2252 -3 c13 -7 16 -17 13 -32 -9 -34 -22 -47 -75 -74 -26 -13 -48
-29 -48 -34 0 -6 -9 -10 -20 -10 -11 0 -20 2 -20 4 0 9 64 102 88 129 28 30
35 32 62 17z m145 -30 c-3 -5 -11 -10 -16 -10 -6 0 -7 5 -4 10 3 6 11 10 16
10 6 0 7 -4 4 -10z m-30 -20 c3 -5 1 -10 -4 -10 -6 0 -11 5 -11 10 0 6 2 10 4
10 3 0 8 -4 11 -10z m2304 -52 c28 -21 16 -23 -39 -6 -32 10 -60 39 -60 63 0
6 68 -34 99 -57z m-159 12 c0 -5 -2 -10 -4 -10 -3 0 -8 5 -11 10 -3 6 -1 10 4
10 6 0 11 -4 11 -10z m-342 -22 c-2 -6 -10 -14 -16 -16 -7 -2 -10 2 -6 12 7
18 28 22 22 4z m232 -56 c0 -15 -2 -15 -10 -2 -13 20 -13 33 0 25 6 -3 10 -14
10 -23z m284 2 c10 -27 7 -38 -7 -25 -20 16 -29 0 -11 -20 12 -13 12 -19 3
-25 -7 -4 -17 1 -25 12 -7 10 -18 24 -24 31 -17 20 -11 31 15 29 13 -2 22 1
19 5 -3 5 1 9 9 9 8 0 18 -7 21 -16z m-2550 -59 c-4 -8 -10 -15 -15 -15 -5 0
-9 -5 -9 -11 0 -5 5 -7 10 -4 15 9 12 -11 -4 -24 -24 -20 -27 15 -5 43 23 29
31 33 23 11z m2583 -17 c-3 -7 -5 -2 -5 12 0 14 2 19 5 13 2 -7 2 -19 0 -25z
m-1632 -9 c11 -17 -1 -21 -15 -4 -8 9 -8 15 -2 15 6 0 14 -5 17 -11z m1185
-40 c0 -18 -2 -19 -15 -9 -8 7 -15 16 -15 21 0 5 7 9 15 9 9 0 15 -9 15 -21z
m374 -5 c4 -9 4 -19 2 -21 -8 -8 -26 8 -26 23 0 19 16 18 24 -2z m-2603 -90
c-11 -15 -21 -21 -21 -14 0 15 31 52 38 46 2 -3 -5 -17 -17 -32z m2569 -24 c0
-5 -7 -7 -15 -4 -8 4 -12 10 -9 15 6 11 24 2 24 -11z m99 1 c11 -11 15 -24 11
-31 -5 -9 -12 -5 -24 11 -27 40 -19 52 13 20z m51 -33 c0 -20 -18 -5 -23 19
-5 26 -4 26 9 8 8 -10 14 -22 14 -27z m-1603 10 c-3 -8 -6 -5 -6 6 -1 11 2 17
5 13 3 -3 4 -12 1 -19z m630 -30 c-3 -8 -6 -5 -6 6 -1 11 2 17 5 13 3 -3 4
-12 1 -19z m-1486 -55 c-12 -20 -14 -14 -5 12 4 9 9 14 11 11 3 -2 0 -13 -6
-23z m1393 11 c3 -8 2 -12 -4 -9 -6 3 -10 10 -10 16 0 14 7 11 14 -7z m83 -36
c-3 -8 -6 -5 -6 6 -1 11 2 17 5 13 3 -3 4 -12 1 -19z m96 -23 c5 -40 5 -40 -8
-10 -7 16 -10 35 -8 43 7 18 9 13 16 -33z m-1047 -33 c-11 -10 -15 4 -8 28 l7
25 3 -23 c2 -13 1 -26 -2 -30z m866 26 c-7 -7 -12 -8 -12 -2 0 14 12 26 19 19
2 -3 -1 -11 -7 -17z m-1049 -8 c-3 -12 -8 -19 -11 -16 -5 6 5 36 12 36 2 0 2
-9 -1 -20z m97 -28 c0 -5 -7 -17 -16 -28 -8 -10 -14 -14 -11 -9 2 6 7 18 10
28 7 17 17 23 17 9z m2155 -2 c3 -5 -1 -10 -10 -10 -9 0 -13 5 -10 10 3 6 8
10 10 10 2 0 7 -4 10 -10z m-2314 -23 c-10 -9 -11 -8 -5 6 3 10 9 15 12 12 3
-3 0 -11 -7 -18z m1154 1 c-1 -13 -10 -39 -19 -58 l-17 -35 7 35 c7 40 21 80
28 80 2 0 3 -10 1 -22z m-1602 -21 c-4 -20 -8 -25 -14 -16 -4 7 -3 21 3 32 13
25 17 18 11 -16z m2687 23 c0 -5 -5 -10 -11 -10 -5 0 -7 5 -4 10 3 6 8 10 11
10 2 0 4 -4 4 -10z m135 0 c-3 -5 -13 -10 -21 -10 -8 0 -12 5 -9 10 3 6 13 10
21 10 8 0 12 -4 9 -10z m-2527 -35 c0 -28 -13 -33 -22 -10 -7 18 3 47 14 40 4
-2 8 -16 8 -30z m219 -37 c-3 -8 -6 -5 -6 6 -1 11 2 17 5 13 3 -3 4 -12 1 -19z
m2213 12 c0 -5 -4 -10 -10 -10 -5 0 -10 5 -10 10 0 6 5 10 10 10 6 0 10 -4 10
-10z m-2930 -30 c0 -5 -4 -10 -10 -10 -5 0 -10 5 -10 10 0 6 5 10 10 10 6 0
10 -4 10 -10z m2941 -44 c5 3 9 -2 9 -12 0 -13 -3 -14 -15 -4 -8 7 -15 18 -14
24 0 7 2 6 6 -2 2 -6 9 -10 14 -6z m54 -36 c-3 -6 -14 -10 -23 -10 -13 0 -14
2 -3 9 10 6 10 10 1 16 -9 6 -9 9 1 16 15 9 34 -15 24 -31z m-1004 -22 l-16
-28 -3 26 c-5 39 4 58 21 42 11 -10 11 -17 -2 -40z m556 20 c-3 -7 -5 -2 -5
12 0 14 2 19 5 13 2 -7 2 -19 0 -25z m356 12 c3 -11 1 -20 -4 -20 -5 0 -9 9
-9 20 0 11 2 20 4 20 2 0 6 -9 9 -20z m-2966 -32 c-3 -8 -6 -5 -6 6 -1 11 2
17 5 13 3 -3 4 -12 1 -19z m520 -10 c-3 -7 -5 -2 -5 12 0 14 2 19 5 13 2 -7 2
-19 0 -25z m-192 10 c-3 -7 -7 -41 -8 -76 -2 -34 -9 -68 -16 -75 -11 -10 -12
-3 -7 34 15 101 21 129 30 129 3 0 3 -6 1 -12z m2672 -42 c-13 -13 -14 -12
-12 17 4 44 5 45 17 20 8 -17 7 -25 -5 -37z m-27 23 c0 -6 -4 -7 -10 -4 -5 3
-10 11 -10 16 0 6 5 7 10 4 6 -3 10 -11 10 -16z m87 -11 c-3 -8 -6 -5 -6 6 -1
11 2 17 5 13 3 -3 4 -12 1 -19z m-1080 -12 c-4 -9 -1 -13 6 -10 8 3 12 -11 12
-46 0 -28 -4 -49 -10 -47 -5 1 -10 12 -10 24 1 12 -2 20 -6 18 -3 -3 -6 13 -6
35 0 22 4 40 9 40 6 0 8 -7 5 -14z m1073 -22 c0 -8 5 -14 12 -14 6 0 9 -2 6
-5 -10 -10 -36 6 -41 25 -3 13 0 17 9 13 8 -3 14 -11 14 -19z m-2850 1 c20
-24 6 -28 -15 -5 -10 11 -13 20 -8 20 6 0 16 -7 23 -15z m875 7 c-53 -42 -60
-46 -33 -19 16 15 31 27 35 27 4 0 3 -3 -2 -8z m1789 -56 c-3 -21 -8 -35 -11
-32 -2 2 -1 20 3 40 3 21 8 35 11 32 2 -2 1 -20 -3 -40z m-657 2 c-3 -8 -6 -5
-6 6 -1 11 2 17 5 13 3 -3 4 -12 1 -19z m506 -10 c-7 -46 -13 -48 -13 -5 0 21
4 37 9 37 5 0 7 -15 4 -32z m-266 -20 c-3 -8 -6 -5 -6 6 -1 11 2 17 5 13 3 -3
4 -12 1 -19z m-2517 -33 c0 -8 -4 -15 -10 -15 -5 0 -10 7 -10 15 0 8 5 15 10
15 6 0 10 -7 10 -15z m1969 -39 c14 -16 4 -45 -22 -68 -18 -16 -18 -18 -3 -18
10 0 23 14 31 33 8 17 14 28 15 22 0 -5 4 -5 8 2 5 7 8 -3 9 -25 2 -33 -2 -39
-27 -50 -25 -11 -33 -11 -57 4 -28 18 -28 18 -8 -2 11 -11 29 -24 40 -28 11
-5 15 -10 9 -12 -6 -3 -26 2 -45 10 -19 9 -30 15 -25 16 5 0 4 6 -2 13 -12 14
-11 35 1 54 6 9 3 11 -8 7 -25 -10 -8 19 23 38 34 21 47 21 61 4z m-1969 -11
c0 -17 -2 -18 -25 -9 -13 5 -14 8 -3 15 19 13 28 11 28 -6z m2682 -7 c-7 -7
-12 -8 -12 -2 0 6 3 14 7 17 3 4 9 5 12 2 2 -3 -1 -11 -7 -17z m-2157 2 c3 -5
1 -10 -4 -10 -6 0 -11 5 -11 10 0 6 2 10 4 10 3 0 8 -4 11 -10z m1075 -50 c0
-5 -4 -10 -10 -10 -5 0 -10 5 -10 10 0 6 5 10 10 10 6 0 10 -4 10 -10z m163
-70 c0 -40 -4 -65 -12 -70 -9 -5 -10 -10 -2 -14 6 -4 11 -19 11 -34 1 -15 7
-38 16 -52 14 -23 14 -23 9 -2 -4 13 -2 22 4 22 6 0 11 -5 11 -12 0 -38 70
-63 100 -35 7 6 3 -3 -10 -21 -19 -28 -27 -33 -50 -28 -19 3 -30 1 -34 -9 -4
-10 -22 -16 -58 -17 l-53 -1 55 -6 c51 -6 55 -8 55 -33 1 -15 -2 -25 -6 -22
-4 2 -10 0 -14 -6 -9 -15 -28 -12 -22 3 3 8 -1 14 -9 14 -21 0 -17 -25 6 -37
11 -6 20 -15 20 -19 0 -13 -37 -20 -48 -9 -6 6 -18 8 -27 4 -14 -5 -15 -9 -5
-21 11 -13 -3 -15 -109 -15 -66 0 -121 4 -121 9 0 4 5 23 11 41 l12 33 13 -24
13 -24 1 31 c0 17 -3 34 -6 37 -4 4 -8 34 -10 68 -2 34 -6 75 -10 92 -6 29 -5
29 22 23 27 -6 28 -5 7 6 -12 7 -23 18 -24 23 -1 6 -9 16 -16 23 -19 20 -16
27 13 30 24 2 25 0 13 -16 -13 -16 -12 -16 6 -1 11 9 34 24 52 33 31 16 32 16
53 -15 12 -16 25 -28 28 -25 3 3 -2 14 -10 23 -16 20 -30 53 -22 53 8 0 119
-122 119 -131 0 -4 3 -10 7 -14 3 -4 6 0 4 8 -1 8 -19 33 -39 56 -20 23 -37
47 -37 55 0 26 12 46 28 46 8 0 12 3 9 7 -4 3 3 17 15 30 30 32 40 17 41 -57z
m30 45 c-20 -41 -28 -39 -18 4 4 17 13 31 21 31 11 0 11 -6 -3 -35z m647 9 c0
-8 5 -14 10 -14 6 0 14 -8 17 -17 4 -10 13 -29 22 -42 14 -22 15 -22 23 -5 7
17 7 17 5 -2 -1 -11 5 -29 13 -40 14 -17 13 -18 -1 -7 -9 7 -20 9 -24 5 -5 -4
-5 -1 -1 6 4 7 1 15 -8 18 -9 3 -16 12 -16 20 0 8 -6 14 -13 14 -7 0 -21 16
-30 35 -19 40 -22 59 -7 50 6 -3 10 -13 10 -21z m-579 -27 c-10 -9 -11 -8 -5
6 3 10 9 15 12 12 3 -3 0 -11 -7 -18z m-1057 -3 c3 -8 2 -12 -4 -9 -6 3 -10
10 -10 16 0 14 7 11 14 -7z m1041 -54 c-3 -6 1 -10 10 -10 10 0 13 -5 9 -12
-4 -6 -3 -9 2 -5 5 3 28 8 52 12 39 5 42 4 43 -17 0 -13 3 -17 6 -10 2 6 12
12 21 12 15 0 15 2 2 10 -9 6 -10 10 -3 10 37 0 2 -50 -45 -65 -33 -10 -80 4
-87 25 -3 11 -12 19 -18 17 -7 -1 -12 9 -12 25 1 14 -3 25 -6 22 -14 -9 -21
17 -8 32 11 14 14 12 26 -11 8 -14 11 -30 8 -35z m163 27 c2 -9 -3 -17 -10
-17 -8 0 -14 9 -14 20 0 24 20 21 24 -3z m-878 -2 c0 -8 -9 -15 -20 -15 -22 0
-27 15 -7 23 21 9 27 7 27 -8z m240 6 c0 -5 -7 -12 -16 -15 -21 -8 -24 -8 -24
5 0 5 5 7 10 4 6 -3 10 -1 10 4 0 6 5 11 10 11 6 0 10 -4 10 -9z m90 -1 c0 -5
-2 -10 -4 -10 -3 0 -8 5 -11 10 -3 6 -1 10 4 10 6 0 11 -4 11 -10z m114 -4
c-7 -17 -44 -33 -66 -28 -20 4 -13 32 9 32 8 0 11 -4 8 -10 -3 -5 -1 -10 4
-10 6 0 11 4 11 9 0 5 8 12 18 14 9 3 18 5 19 6 1 0 0 -5 -3 -13z m-131 -10
c9 -7 17 -21 17 -31 0 -20 -15 -11 -15 8 0 7 -8 11 -18 9 -10 -2 -17 3 -17 13
0 18 9 19 33 1z m-193 -5 c0 -6 -4 -13 -10 -16 -5 -3 -10 1 -10 9 0 9 5 16 10
16 6 0 10 -4 10 -9z m30 5 c0 -3 -4 -8 -10 -11 -5 -3 -10 -1 -10 4 0 6 5 11
10 11 6 0 10 -2 10 -4z m619 -12 c-14 -17 -25 -18 -32 -1 -3 7 5 13 20 13 19
2 22 -1 12 -12z m-499 -4 c0 -5 -7 -10 -15 -10 -8 0 -15 5 -15 10 0 6 7 10 15
10 8 0 15 -4 15 -10z m-522 -36 c-4 -3 -12 5 -18 18 -12 22 -12 22 6 6 10 -10
15 -20 12 -24z m290 18 c13 -13 18 -31 16 -61 -1 -23 -5 -45 -9 -49 -4 -4 -22
10 -41 30 -33 37 -33 37 -16 68 20 35 26 36 50 12z m628 2 c-4 -10 1 -22 11
-30 17 -12 16 -13 -4 -7 -16 4 -23 13 -23 29 0 13 5 24 11 24 6 0 8 -7 5 -16z
m-1671 -33 c-3 -12 -11 -21 -16 -21 -10 0 -12 43 -2 54 12 12 25 -11 18 -33z
m985 35 c0 -2 -7 -9 -15 -16 -12 -10 -15 -10 -15 4 0 9 7 16 15 16 8 0 15 -2
15 -4z m195 -16 c-4 -6 18 -7 59 -4 45 4 66 2 72 -7 5 -9 1 -10 -17 -6 l-24 6
21 -17 c12 -9 29 -21 38 -27 20 -12 36 -107 30 -174 -5 -48 -37 -131 -52 -131
-5 0 -9 14 -10 30 0 17 4 30 9 30 23 0 6 18 -23 24 -17 3 -38 12 -46 18 -7 7
-23 13 -34 15 -29 5 -118 83 -118 104 0 12 -5 16 -15 13 -23 -9 -18 6 10 32
13 12 27 18 31 13 3 -5 10 -6 16 -3 7 4 6 9 -2 14 -9 6 -7 11 8 19 12 6 25 10
29 9 19 -7 14 18 -6 28 -23 12 -18 24 11 24 11 0 16 -4 13 -10z m-468 -36 c-3
-4 -14 -3 -24 0 -15 6 -15 8 -3 16 16 10 39 -4 27 -16z m963 -25 c0 -6 -4 -7
-10 -4 -5 3 -10 11 -10 16 0 6 5 7 10 4 6 -3 10 -11 10 -16z m50 -9 c-9 -6 -7
-10 6 -18 10 -6 15 -14 11 -19 -5 -4 -15 1 -23 11 -8 11 -14 16 -14 11 0 -4
-3 -6 -6 -2 -8 8 19 36 30 30 4 -3 3 -9 -4 -13z m-660 -83 c0 -5 -6 -5 -12 0
-7 4 -19 8 -26 9 -8 2 -15 4 -15 6 -1 2 -13 16 -27 31 -21 24 -22 30 -10 37
11 7 24 -1 52 -33 20 -23 37 -46 38 -50z m744 84 c3 -4 -6 -8 -19 -9 -13 -1
-26 2 -29 7 -3 5 6 9 19 9 14 0 27 -3 29 -7z m471 -51 c10 -30 -1 -38 -51 -38
-32 1 -48 6 -54 19 -13 24 -13 26 6 33 10 4 30 -4 51 -20 19 -14 37 -24 40
-21 2 3 -5 10 -16 17 -12 6 -21 20 -21 31 0 16 3 18 19 9 11 -5 22 -19 26 -30z
m-2270 -10 c3 -5 1 -10 -4 -10 -6 0 -11 5 -11 10 0 6 2 10 4 10 3 0 8 -4 11
-10z m1905 -30 c-11 -21 -51 -35 -43 -14 3 7 10 12 16 11 7 -1 11 6 11 15 -1
10 4 14 12 11 10 -4 11 -10 4 -23z m-1489 3 c8 -9 14 -19 14 -22 0 -3 3 -5 8
-3 4 1 7 -2 7 -8 0 -21 -45 1 -60 30 -14 26 11 28 31 3z m1814 -13 c3 -6 -1
-7 -9 -4 -18 7 -21 14 -7 14 6 0 13 -4 16 -10z m-2253 -79 c-9 -26 -23 17 -15
46 l7 28 6 -30 c4 -16 4 -36 2 -44z m598 35 c0 -11 -19 -15 -25 -6 -3 5 1 10
9 10 9 0 16 -2 16 -4z m1512 -198 c25 -11 57 -31 70 -45 12 -15 19 -24 13 -21
-49 27 -180 79 -193 77 -4 -1 -27 -1 -52 1 -36 1 -41 3 -25 10 29 13 133 1
187 -22z m-487 -98 c3 -5 2 -10 -4 -10 -5 0 -13 5 -16 10 -3 6 -2 10 4 10 5 0
13 -4 16 -10z m932 -27 c-3 -10 -5 -4 -5 12 0 17 2 24 5 18 2 -7 2 -21 0 -30z
m-130 7 c2 -22 -12 -27 -23 -9 -5 9 5 22 21 29 1 0 1 -9 2 -20z m-867 0 c8 -5
12 -11 9 -14 -3 -3 -14 1 -25 9 -21 16 -8 20 16 5z m1140 -75 c0 -14 5 -25 11
-25 5 0 7 -5 4 -11 -4 -6 1 -13 11 -15 18 -5 19 -18 18 -182 0 -97 -1 -184 -2
-193 -4 -38 -99 -109 -147 -109 -30 0 -55 37 -49 72 11 68 27 118 38 118 6 0
3 5 -6 11 -26 15 -22 56 8 92 24 29 25 32 9 44 -10 7 -21 14 -25 15 -4 2 -10
35 -13 73 -5 58 -4 66 6 49 13 -23 37 -21 37 3 0 9 6 13 15 9 10 -4 23 8 40
34 29 46 45 51 45 15z m64 -21 c-6 -25 -8 -26 -15 -9 -11 28 -10 43 1 25 8
-13 10 -12 10 4 0 11 2 17 5 14 4 -3 3 -18 -1 -34z m-1118 -84 c8 0 14 5 14
11 0 5 5 7 11 3 8 -4 3 -11 -12 -20 -24 -12 -40 -4 -38 21 0 6 3 4 6 -2 2 -7
11 -13 19 -13z m47 -60 c3 -11 1 -20 -4 -20 -5 0 -9 9 -9 20 0 11 2 20 4 20 2
0 6 -9 9 -20z m1253 7 c9 -9 -12 -58 -27 -62 -10 -4 -19 -12 -19 -18 0 -8 -3
-8 -8 -2 -4 6 -20 18 -37 27 -35 19 -50 47 -16 29 21 -12 31 2 11 14 -5 3 -10
11 -10 17 0 7 18 8 52 4 29 -4 53 -8 54 -9z m-116 -67 c0 -5 -5 -10 -11 -10
-5 0 -7 5 -4 10 3 6 8 10 11 10 2 0 4 -4 4 -10z m147 -182 c-3 -7 -5 -2 -5 12
0 14 2 19 5 13 2 -7 2 -19 0 -25z m-330 -474 c-3 -3 -12 -4 -19 -1 -8 3 -5 6
6 6 11 1 17 -2 13 -5z m68 -4 c8 -13 -5 -13 -25 0 -13 8 -13 10 2 10 9 0 20
-4 23 -10z m-97 -95 c-2 -1 -16 -5 -33 -9 l-30 -6 25 14 c14 8 28 12 33 9 5
-3 7 -6 5 -8z m-5 -32 c-7 -2 -19 -2 -25 0 -7 3 -2 5 12 5 14 0 19 -2 13 -5z
m-1853 -433 c8 -5 11 -10 5 -10 -5 0 -17 5 -25 10 -8 5 -10 10 -5 10 6 0 17
-5 25 -10z m281 -293 c12 -22 12 -22 -10 -3 -11 11 -21 23 -21 28 0 14 19 -1
31 -25z"/>
<path d="M924 4064 c-18 -14 -18 -15 4 -4 12 6 22 13 22 15 0 8 -5 6 -26 -11z"/>
<path d="M2231 2923 c-1 -26 14 -31 23 -7 3 8 2 13 -3 9 -5 -3 -12 1 -14 7 -3
7 -6 3 -6 -9z"/>
<path d="M1997 2679 c7 -7 15 -10 18 -7 3 3 -2 9 -12 12 -14 6 -15 5 -6 -5z"/>
<path d="M1850 2656 c0 -2 7 -7 16 -10 8 -3 12 -2 9 4 -6 10 -25 14 -25 6z"/>
<path d="M3086 1931 c-10 -11 -15 -25 -11 -32 6 -8 13 -3 22 15 18 34 12 43
-11 17z"/>
<path d="M3060 1830 c0 -5 5 -10 10 -10 6 0 10 5 10 10 0 6 -4 10 -10 10 -5 0
-10 -4 -10 -10z"/>
<path d="M3020 1815 c-8 -9 -8 -15 -2 -15 12 0 26 19 19 26 -2 2 -10 -2 -17
-11z"/>
<path d="M2088 4543 c6 -2 18 -2 25 0 6 3 1 5 -13 5 -14 0 -19 -2 -12 -5z"/>
<path d="M2928 4293 c6 -2 18 -2 25 0 6 3 1 5 -13 5 -14 0 -19 -2 -12 -5z"/>
<path d="M3128 3983 c7 -3 16 -2 19 1 4 3 -2 6 -13 5 -11 0 -14 -3 -6 -6z"/>
<path d="M3166 3937 c3 -10 9 -15 12 -12 3 3 0 11 -7 18 -10 9 -11 8 -5 -6z"/>
<path d="M3290 3647 c0 -4 9 -24 20 -44 11 -21 20 -43 20 -50 0 -7 7 -13 15
-13 8 0 15 -5 15 -12 0 -6 2 -9 5 -7 9 9 -7 49 -18 42 -5 -3 -7 -1 -4 4 10 15
-13 74 -25 67 -6 -4 -14 0 -19 7 -5 8 -9 11 -9 6z"/>
<path d="M3436 2955 c-3 -8 -1 -15 4 -15 6 0 10 7 10 15 0 8 -2 15 -4 15 -2 0
-6 -7 -10 -15z"/>
<path d="M620 2384 c0 -6 7 -19 15 -30 8 -10 14 -14 14 -9 0 6 -6 19 -14 29
-8 11 -15 15 -15 10z"/>
<path d="M1270 2383 c49 -6 58 -20 18 -28 -43 -8 -178 -66 -178 -76 0 -4 -7
-14 -15 -23 -17 -16 -10 -46 10 -46 7 0 15 6 18 13 4 10 7 10 18 0 18 -18 42
-16 65 5 43 40 53 41 89 5 35 -35 52 -37 126 -17 16 4 39 44 39 69 0 18 32 9
59 -17 12 -10 19 -23 16 -29 -4 -5 0 -9 9 -9 8 0 22 -3 32 -7 13 -5 15 -3 9 7
-6 10 -2 12 19 8 27 -5 33 1 16 18 -15 15 50 16 67 2 19 -15 17 12 -3 40 -37
53 -129 76 -349 85 -55 2 -84 2 -65 0z m126 -30 c12 -4 0 -10 -37 -20 -109
-27 -214 -77 -202 -96 3 -6 1 -7 -5 -3 -34 21 24 70 118 101 81 26 99 29 126
18z"/>
<path d="M2440 2383 c131 -13 199 -26 265 -52 41 -16 75 -27 75 -25 0 2 -21
14 -47 28 -66 33 -179 56 -260 54 -37 0 -52 -3 -33 -5z"/>
<path d="M1163 2373 c9 -2 25 -2 35 0 9 3 1 5 -18 5 -19 0 -27 -2 -17 -5z"/>
<path d="M2767 2361 c-3 -11 0 -25 7 -30 8 -7 11 -3 11 15 -2 32 -11 40 -18
15z"/>
<path d="M1118 2363 c7 -3 16 -2 19 1 4 3 -2 6 -13 5 -11 0 -14 -3 -6 -6z"/>
<path d="M1855 2313 c56 -12 115 -36 115 -46 0 -8 3 -8 11 0 6 6 9 16 5 21 -7
12 -87 32 -123 31 -20 -1 -22 -3 -8 -6z"/>
<path d="M684 2220 c12 -33 27 -60 34 -60 16 0 15 1 -18 68 -34 69 -42 65 -16
-8z"/>
<path d="M1683 2226 c4 -10 1 -16 -8 -16 -8 0 -15 -7 -15 -16 0 -10 7 -14 22
-12 16 2 23 10 22 27 0 14 -6 27 -13 29 -10 3 -12 0 -8 -12z"/>
<path d="M890 2211 c0 -5 5 -13 10 -16 6 -3 10 -2 10 4 0 5 -4 13 -10 16 -5 3
-10 2 -10 -4z"/>
<path d="M2473 2166 c5 -14 37 -16 37 -2 0 6 -9 12 -20 12 -11 0 -19 -5 -17
-10z"/>
<path d="M1525 2160 c-11 -18 5 -28 32 -21 38 10 41 31 4 31 -16 0 -33 -4 -36
-10z"/>
<path d="M1687 2154 c-4 -4 -7 -14 -7 -23 0 -11 3 -12 11 -4 6 6 10 16 7 23
-2 6 -7 8 -11 4z"/>
<path d="M1250 2126 c0 -13 13 -16 68 -16 37 0 74 5 82 10 10 6 -8 9 -56 8
-39 -1 -76 2 -82 6 -7 4 -12 1 -12 -8z"/>
<path d="M1424 2128 c-3 -4 13 -8 35 -8 22 0 42 4 46 9 3 6 -12 9 -35 8 -23
-1 -44 -5 -46 -9z"/>
<path d="M1656 2064 c-3 -9 -4 -20 0 -25 6 -10 34 14 34 30 0 17 -27 13 -34
-5z"/>
<path d="M1623 2048 c-20 -26 -26 -41 -15 -34 12 7 36 46 29 46 -3 0 -9 -6
-14 -12z"/>
<path d="M1686 2005 c-9 -26 -7 -32 5 -12 6 10 9 21 6 23 -2 3 -7 -2 -11 -11z"/>
<path d="M1623 1997 c-13 -5 -23 -17 -23 -26 0 -11 3 -13 8 -4 4 7 18 14 30
16 12 2 25 7 29 12 5 4 3 5 -4 2 -6 -4 -13 -3 -15 2 -1 4 -13 4 -25 -2z"/>
<path d="M680 1949 c0 -17 27 -45 35 -37 3 3 -3 16 -14 29 -16 19 -20 20 -21
8z"/>
<path d="M467 1813 c-3 -16 -1 -30 4 -31 5 -2 7 -8 4 -13 -3 -5 -1 -18 5 -29
8 -16 8 -20 -4 -20 -8 0 -18 5 -21 10 -3 6 -11 10 -17 10 -6 0 1 -9 15 -20 14
-12 25 -26 23 -33 -1 -7 -1 -9 1 -4 3 4 11 7 19 7 11 0 12 -4 5 -19 -6 -10 -8
-21 -5 -23 2 -3 9 -20 14 -38 8 -27 7 -31 -7 -26 -11 5 -14 2 -9 -10 3 -8 6
-24 6 -34 0 -11 11 -22 30 -29 18 -6 30 -17 30 -28 0 -10 9 -24 21 -31 13 -8
18 -19 14 -31 -3 -11 3 -25 17 -37 12 -10 18 -13 14 -6 -4 6 -2 12 3 12 6 0
11 -4 11 -10 0 -5 10 -10 23 -10 27 0 38 -8 55 -37 9 -17 9 -23 1 -23 -7 0 0
-11 15 -25 14 -13 26 -33 26 -44 0 -11 8 -26 18 -33 10 -7 31 -40 45 -72 32
-70 42 -70 21 -1 -22 75 -4 147 27 108 12 -14 12 -16 -1 -8 -13 8 -13 7 0 -10
26 -31 24 5 -4 103 -43 152 -66 242 -66 262 0 11 -4 28 -10 38 -5 9 -15 30
-20 45 l-10 28 -25 -19 c-35 -28 -92 -36 -140 -20 -48 16 -94 77 -102 136 -6
48 -18 55 -26 15z m102 -274 c-21 -13 -28 -11 -26 10 1 16 5 18 20 9 16 -8 17
-12 6 -19z m48 -141 c-3 -7 -5 -2 -5 12 0 14 2 19 5 13 2 -7 2 -19 0 -25z"/>
<path d="M2130 1797 c0 -41 122 -158 162 -156 7 0 3 4 -9 9 -13 5 -23 16 -23
25 0 8 -9 15 -19 15 -11 0 -22 8 -25 18 -6 19 -86 101 -86 89z"/>
<path d="M2770 1774 c0 -8 -6 -11 -14 -8 -15 6 -63 -51 -58 -68 1 -5 -2 -7 -8
-3 -5 3 -10 -1 -10 -10 0 -11 -5 -15 -14 -12 -8 3 -25 -2 -38 -11 -55 -42 -90
-52 -187 -52 -65 0 -62 -5 10 -25 30 -8 94 -26 144 -39 59 -17 92 -22 96 -15
4 7 9 4 13 -6 3 -10 14 -15 27 -13 18 3 25 19 48 108 15 58 26 111 25 118 -1
6 -2 20 -3 30 -1 21 -31 26 -31 6z m-25 -34 c3 -5 -1 -10 -10 -10 -9 0 -13 5
-10 10 3 6 8 10 10 10 2 0 7 -4 10 -10z"/>
<path d="M750 1734 c0 -8 5 -12 10 -9 6 4 8 11 5 16 -9 14 -15 11 -15 -7z"/>
<path d="M1350 1646 c0 -9 8 -12 27 -8 25 5 25 6 8 13 -29 11 -35 10 -35 -5z"/>
<path d="M2088 1518 c-100 -99 -115 -108 -174 -108 -53 0 -113 30 -142 71 -35
50 -76 64 -105 35 -9 -9 -19 -11 -28 -5 -22 13 -29 11 -22 -8 11 -33 36 -53
72 -59 50 -9 88 -30 103 -57 7 -12 27 -41 43 -65 l30 -43 77 5 c47 3 88 12
103 22 24 15 25 15 26 -2 0 -18 1 -17 8 1 8 19 9 18 27 -10 25 -39 45 -44 35
-7 -5 18 -14 26 -25 24 -36 -6 -26 27 23 80 59 62 80 114 62 154 -6 15 -15 24
-18 20 -3 -3 -12 -1 -19 5 -9 7 -29 -6 -76 -53z"/>
<path d="M2206 1256 c8 -21 43 -28 39 -7 -2 9 -4 18 -4 21 -1 3 -6 -2 -11 -10
-6 -10 -10 -11 -10 -2 0 6 -4 12 -10 12 -5 0 -7 -6 -4 -14z"/>
<path d="M2312 1236 c7 -8 15 -12 17 -11 5 6 -10 25 -20 25 -5 0 -4 -6 3 -14z"/>
<path d="M2443 1232 c27 -29 20 -35 -13 -12 -26 18 -30 19 -30 5 0 -9 -4 -13
-10 -10 -5 3 -10 0 -10 -9 0 -8 6 -16 13 -18 6 -3 12 -17 12 -31 1 -22 -4 -27
-22 -27 -13 0 -23 5 -23 10 0 6 8 10 17 10 9 0 14 3 10 6 -9 9 -70 9 -85 0 -7
-4 -34 -8 -60 -8 -26 0 -51 -4 -57 -8 -5 -4 -34 -10 -64 -13 -33 -4 -68 -16
-90 -31 -31 -22 -42 -24 -81 -16 -25 4 -48 6 -53 3 -4 -2 -14 1 -22 7 -8 6
-19 9 -24 6 -22 -14 -105 -23 -130 -15 -22 8 -83 12 -283 19 -16 0 -28 5 -28
9 0 5 -11 4 -25 -2 -14 -7 -25 -15 -25 -19 0 -13 28 -9 33 5 3 9 7 9 19 -1 15
-12 66 -17 443 -42 124 -8 150 -7 227 11 48 10 108 19 133 19 25 0 62 7 82 15
41 17 39 18 51 -14 8 -22 9 -22 25 -6 10 9 24 15 32 12 9 -4 16 4 20 25 6 26
9 29 17 14 5 -9 13 -14 19 -11 5 4 13 -4 18 -17 11 -25 11 -25 16 12 2 17 -5
32 -23 47 -19 16 -22 23 -11 23 8 0 21 -6 27 -12 7 -7 5 3 -4 22 -19 37 -38
60 -50 60 -4 0 0 -8 9 -18z m27 -92 c0 -5 -2 -10 -4 -10 -3 0 -8 5 -11 10 -3
6 -1 10 4 10 6 0 11 -4 11 -10z"/>
<path d="M2335 1200 c3 -5 8 -10 11 -10 2 0 4 5 4 10 0 6 -5 10 -11 10 -5 0
-7 -4 -4 -10z"/>
<path d="M900 1178 c0 -11 30 -78 35 -78 3 0 -2 17 -10 37 -15 36 -25 52 -25
41z"/>
<path d="M2440 1089 c0 -9 7 -22 15 -29 19 -16 19 0 0 26 -12 16 -14 16 -15 3z"/>
<path d="M970 1013 c0 -19 22 -63 32 -63 5 0 6 5 3 10 -3 6 -13 22 -21 38 -7
15 -14 22 -14 15z"/>
<path d="M2272 947 c-12 -13 -44 -34 -70 -48 -45 -23 -57 -24 -247 -26 -127
-1 -225 3 -267 11 -38 7 -68 11 -68 9 0 -9 34 -38 65 -54 25 -14 65 -19 176
-22 79 -3 156 -10 170 -15 15 -6 29 -9 31 -7 2 2 32 6 68 8 49 4 67 9 75 23 5
10 26 35 45 57 39 43 65 87 52 87 -5 0 -18 -10 -30 -23z"/>
<path d="M2740 537 c0 -6 10 -23 21 -37 20 -24 21 -25 16 -2 -3 12 -1 20 4 16
5 -3 9 -1 9 4 0 5 -11 14 -25 20 -19 9 -25 9 -25 -1z"/>
<path d="M2710 508 c0 -18 12 -33 33 -41 22 -8 22 7 0 33 -20 23 -33 26 -33 8z"/>
</g>
</svg>
