<?xml version="1.0" ?><svg id="Capa_1" style="enable-background:new 0 0 512 512;" version="1.1" viewBox="0 0 512 512" xml:space="preserve" xmlns="http://www.w3.org/2000/svg" xmlns:xlink="http://www.w3.org/1999/xlink"><g><g><path d="M116,196c-5.52,0-10,4.48-10,10s4.48,10,10,10s10-4.48,10-10S121.52,196,116,196z"/></g></g><g><g><path d="M116,329H76c-5.523,0-10,4.478-10,10v40c0,5.522,4.477,10,10,10h40c5.523,0,10-4.478,10-10v-40    C126,333.478,121.523,329,116,329z M106,369H86v-20h20V369z"/></g></g><g><g><path d="M116,409H76c-5.523,0-10,4.478-10,10v40c0,5.522,4.477,10,10,10h40c5.523,0,10-4.478,10-10v-40    C126,413.478,121.523,409,116,409z M106,449H86v-20h20V449z"/></g></g><g><g><path d="M196,329h-40c-5.523,0-10,4.478-10,10v40c0,5.522,4.477,10,10,10h40c5.523,0,10-4.478,10-10v-40    C206,333.478,201.523,329,196,329z M186,369h-20v-20h20V369z"/></g></g><g><g><path d="M196,409h-40c-5.523,0-10,4.478-10,10v40c0,5.522,4.477,10,10,10h40c5.523,0,10-4.478,10-10v-40    C206,413.478,201.523,409,196,409z M186,449h-20v-20h20V449z"/></g></g><g><g><path d="M276,329h-40c-5.523,0-10,4.478-10,10v40c0,5.522,4.477,10,10,10h40c5.522,0,10-4.478,10-10v-40    C286,333.478,281.522,329,276,329z M266,369h-20v-20h20V369z"/></g></g><g><g><path d="M276,409h-40c-5.523,0-10,4.478-10,10v40c0,5.522,4.477,10,10,10h40c5.522,0,10-4.478,10-10v-40    C286,413.478,281.522,409,276,409z M266,449h-20v-20h20V449z"/></g></g><g><g><path d="M276,146H76c-5.523,0-10,4.478-10,10v100c0,5.522,4.477,10,10,10h200c5.522,0,10-4.478,10-10V156    C286,150.478,281.522,146,276,146z M266,246H86v-80h180V246z"/></g></g><g><g><path d="M236,196h-80c-5.523,0-10,4.478-10,10c0,5.522,4.477,10,10,10h80c5.522,0,10-4.478,10-10C246,200.478,241.522,196,236,196    z"/></g></g><g><g><path d="M216,43h-80c-5.523,0-10,4.478-10,10s4.477,10,10,10h80c5.523,0,10-4.478,10-10S221.523,43,216,43z"/></g></g><g><g><path d="M456,146H326V93c0-27.57-22.43-50-50-50h-10V10c0-5.522-4.478-10-10-10H96c-5.523,0-10,4.478-10,10v33H76    c-27.57,0-50,22.43-50,50v369c0,27.57,22.43,50,50,50h200c27.57,0,50-22.43,50-50v-93h130c16.542,0,30-13.458,30-30V176    C486,159.458,472.542,146,456,146z M106,20h140v86H106V20z M306,462c0,16.542-13.458,30-30,30H76c-16.542,0-30-13.458-30-30    V305.17h260V462z M306,285.17H46V93c0-16.542,13.458-30,30-30h10v43H76c-5.523,0-10,4.478-10,10c0,5.522,4.477,10,10,10h20h160h20    c5.522,0,10-4.478,10-10c0-5.522-4.478-10-10-10h-10V63h10c16.542,0,30,13.458,30,30V285.17z M466,339c0,5.514-4.486,10-10,10H326    V246h140V339z M466,226H326v-20h140V226z M466,186H326v-20h130c5.514,0,10,4.486,10,10V186z"/></g></g><g><g><path d="M416,266c-7.678,0-14.688,2.902-20,7.664c-5.312-4.761-12.322-7.664-20-7.664c-16.542,0-30,13.458-30,30s13.458,30,30,30    c7.678,0,14.688-2.902,20-7.664c5.312,4.761,12.322,7.664,20,7.664c16.542,0,30-13.458,30-30S432.542,266,416,266z M376,306    c-5.514,0-10-4.486-10-10c0-5.514,4.486-10,10-10c5.514,0,10,4.486,10,10C386,301.514,381.514,306,376,306z M416,306    c-5.514,0-10-4.486-10-10c0-5.514,4.486-10,10-10c5.514,0,10,4.486,10,10C426,301.514,421.514,306,416,306z"/></g></g><g/><g/><g/><g/><g/><g/><g/><g/><g/><g/><g/><g/><g/><g/><g/></svg>